<?xml version="1.0" standalone="no"?>
<!DOCTYPE svg PUBLIC "-//W3C//DTD SVG 20010904//EN"
 "http://www.w3.org/TR/2001/REC-SVG-20010904/DTD/svg10.dtd">
<svg version="1.0" xmlns="http://www.w3.org/2000/svg"
 width="1286.000000pt" height="1292.000000pt" viewBox="0 0 1286.000000 1292.000000"
 preserveAspectRatio="xMidYMid meet">

<g transform="translate(0.000000,1292.000000) scale(0.100000,-0.100000)"
fill="#000000" stroke="none">
<path d="M5985 12709 c-400 -40 -834 -122 -1210 -230 -987 -283 -1961 -876
-2730 -1660 -210 -214 -337 -361 -510 -591 -549 -726 -900 -1493 -1084 -2363
-234 -1107 -174 -2288 171 -3335 397 -1206 1167 -2284 2173 -3042 804 -606
1780 -994 2905 -1155 106 -15 196 -18 600 -18 662 0 909 18 1247 90 761 163
1496 440 2058 776 138 82 405 269 555 388 876 692 1572 1632 1963 2651 167
435 344 1171 391 1625 92 879 -6 1791 -283 2632 -157 476 -403 980 -706 1443
-409 628 -957 1197 -1583 1643 -849 605 -1947 1035 -2867 1122 -347 32 -888
45 -1090 24z m488 -1065 c78 -39 118 -105 125 -206 6 -87 -3 -130 -35 -168
-87 -104 -254 -87 -312 32 -49 103 -11 273 75 332 45 30 99 34 147 10z m1364
-505 c99 -42 153 -109 153 -189 0 -103 -116 -219 -219 -220 -77 0 -163 69
-191 156 -10 28 -8 45 5 89 28 87 79 145 154 171 47 17 42 17 98 -7z m-2686
-26 c83 -58 124 -141 106 -216 -17 -68 -131 -157 -201 -157 -59 0 -156 73
-193 144 -22 43 -20 118 5 158 68 110 184 139 283 71z m1351 -282 c68 -43 70
-57 66 -381 -3 -305 -6 -320 -71 -361 -69 -44 -183 -3 -219 79 -18 39 -20 69
-21 300 -2 302 1 318 71 363 62 39 113 39 174 0z m-1000 -328 c55 -59 144
-181 179 -247 54 -101 42 -167 -41 -223 -87 -60 -196 3 -286 163 -43 77 -74
166 -74 215 0 42 34 78 105 110 58 27 77 24 117 -18z m1973 -11 c62 -34 89
-79 80 -137 -8 -54 -101 -228 -151 -283 l-40 -45 -82 -5 c-81 -5 -82 -4 -111
26 -47 51 -65 97 -51 135 18 54 111 215 149 258 71 84 123 97 206 51z m1833
-1060 c208 -21 301 -71 478 -255 113 -116 135 -157 160 -299 33 -190 37 -371
41 -2355 l4 -1973 -3576 0 -3576 0 7 2163 6 2162 49 90 c26 50 64 112 83 140
57 79 206 225 258 251 113 57 263 74 763 84 616 12 5169 5 5303 -8z m-7345
-2473 c45 -12 113 -92 123 -145 5 -30 2 -43 -22 -76 -16 -23 -46 -55 -67 -72
l-39 -31 -306 -3 c-169 -2 -327 -1 -351 3 -31 5 -55 18 -88 48 -80 73 -90 116
-45 188 35 54 61 78 98 89 42 12 651 12 697 -1z m9639 -11 c43 -19 63 -46 78
-109 22 -87 -22 -174 -98 -197 -54 -16 -655 -17 -703 -1 -105 36 -144 157 -82
257 44 72 47 72 433 69 284 -2 341 -5 372 -19z m-113 -678 c116 -15 183 -64
202 -147 17 -77 -44 -169 -132 -198 -72 -24 -664 -18 -721 7 -47 21 -68 54
-75 120 -11 106 30 175 117 198 97 26 468 38 609 20z m-9504 -25 c79 -40 127
-154 92 -221 -23 -44 -67 -81 -116 -99 -35 -12 -99 -15 -345 -15 -171 0 -317
4 -337 10 -42 12 -125 94 -135 135 -15 61 23 147 79 180 48 28 118 34 427 32
273 -2 298 -4 335 -22z m8001 -2267 c-12 -407 -28 -473 -146 -616 -42 -52
-157 -141 -225 -175 -77 -38 -141 -47 -400 -57 -351 -14 -5041 -24 -5490 -12
-340 9 -375 11 -435 32 -125 42 -222 115 -311 233 -119 158 -126 186 -136 560
l-6 257 3578 0 3578 0 -7 -222z m-2699 -1205 l291 -6 93 -194 c51 -106 90
-195 88 -197 -2 -2 -152 -9 -334 -15 -375 -14 -487 -24 -522 -46 -35 -23 -83
-104 -83 -139 0 -17 9 -46 20 -64 40 -66 33 -65 675 -73 725 -9 780 -17 867
-119 75 -87 79 -242 7 -281 -38 -20 -1130 -31 -2464 -24 -698 3 -1318 9 -1377
13 -142 9 -153 19 -153 130 0 88 16 130 72 186 76 76 155 85 773 92 676 7 728
14 750 93 13 51 2 128 -24 158 -37 43 -110 52 -519 67 -208 8 -381 17 -384 20
-3 2 0 20 6 38 12 35 166 327 181 342 5 5 49 12 97 16 116 9 1566 12 1940 3z"/>
<path d="M4715 9040 c-1170 -8 -1129 -6 -1233 -59 -57 -29 -127 -94 -157 -145
-49 -85 -49 -80 -53 -1701 -4 -1654 2 -1951 38 -2033 41 -93 82 -113 270 -133
75 -9 905 -13 2952 -16 l2846 -4 66 62 c47 43 75 81 97 126 l31 65 9 301 c19
587 -8 2992 -36 3182 -21 153 -42 192 -139 265 -65 49 -126 63 -341 80 -187
15 -2786 21 -4350 10z m1870 -755 c208 -93 1359 -623 1517 -698 171 -82 198
-100 198 -136 0 -34 -46 -79 -116 -114 -64 -32 -82 -53 -66 -75 42 -60 45 -75
57 -307 7 -131 17 -240 24 -252 28 -53 41 -398 21 -553 -12 -87 -29 -116 -91
-148 -53 -28 -107 -23 -181 14 -105 53 -122 114 -116 414 3 203 3 206 33 265
36 74 40 131 23 318 l-13 138 -461 184 c-254 101 -506 197 -560 213 -129 39
-388 103 -440 109 -89 10 -181 -41 -228 -126 -72 -132 -29 -268 107 -335 87
-44 172 -32 258 36 47 37 55 40 98 36 25 -3 132 -38 236 -77 105 -40 235 -89
291 -110 55 -20 111 -43 125 -52 21 -14 22 -18 9 -34 -17 -20 -232 -129 -438
-222 -239 -107 -443 -193 -458 -193 -37 0 -1334 571 -1618 711 -147 74 -265
142 -271 158 -3 8 1 23 9 35 15 24 222 137 391 214 61 28 340 157 620 287 732
340 824 379 875 368 14 -3 88 -33 165 -68z m973 -1872 l-3 -318 -214 -127
c-505 -300 -640 -346 -969 -335 -205 7 -282 26 -477 122 -133 65 -571 318
-602 349 -17 16 -30 524 -14 554 23 43 70 30 316 -88 209 -100 720 -333 776
-354 l46 -18 377 171 c208 95 462 214 564 266 103 52 190 94 195 94 4 1 6
-142 5 -316z"/>
<path d="M6311 3960 c-111 -51 -171 -137 -171 -246 0 -154 80 -247 224 -261
156 -14 289 62 332 190 29 86 -2 173 -91 260 -74 72 -205 97 -294 57z"/>
</g>
</svg>
